<svg width="363" height="167" xmlns="http://www.w3.org/2000/svg">
  <g>
    <g fill="none" fill-rule="evenodd" opacity=".399">
      <path
        d="M162.955 164.707c.216-30.223-.352-59.225-1.704-87.004l-32.392-8.151v24.465H120V83.464l-12.096-8.018V40H59.583v63.724h-6.038V88.946H12.472V110.3L0 114.978V167c87.31-1.86 141.628-2.623 162.955-2.293z"
        fillOpacity=".107"
        fill="#1E1E1E"
        fill-rule="nonzero"
      />
      <g opacity=".202">
        <g transform="translate(18.295 .42)" fill-rule="nonzero">
          <path fill="#FFF" d="M207.473 66.214h10.875v97.875h-10.875z" />
          <path
            d="M281.041 25.555h9.651a.333.333 0 00.336-.336.333.333 0 00-.336-.336h-9.65a.333.333 0 00-.337.336c0 .188.148.336.336.336zM294.144 25.555h4.113a.333.333 0 00.336-.336.333.333 0 00-.336-.336h-4.113a.333.333 0 00-.336.336c0 .188.148.336.336.336z"
            stroke="#000"
            fill="#000"
          />
          <path
            d="M323.473 13.567c-.135 0-.256 0-.39.013a12.393 12.393 0 00-9.691-4.664c-4.759 0-8.898 2.688-10.982 6.626a6.265 6.265 0 00-1.425-.174 5.948 5.948 0 00-5.954 5.954H331.228c0-4.288-3.481-7.755-7.755-7.755z"
            fill="#FFF"
          />
          <path
            d="M295.007 21.658s0 0 0 0h36.21a.333.333 0 00.337-.336c0-4.462-3.63-8.091-8.092-8.091h-.228a12.683 12.683 0 00-9.84-4.65c-4.65 0-8.898 2.513-11.156 6.572a6.565 6.565 0 00-1.25-.121c-3.454 0-6.263 2.795-6.29 6.25v.04c-.027.188.134.336.309.336zm35.861-.672h-35.512a5.622 5.622 0 016.95-5.121c.147.04.309-.027.376-.175a12.045 12.045 0 0110.686-6.438c3.683 0 7.124 1.654 9.422 4.53.067.08.175.134.282.12.121 0 .256-.013.377-.013 3.992.014 7.244 3.159 7.42 7.097z"
            stroke="#000"
            fill="#000"
          />
          <path
            d="M331.228 21.658h2.823a.333.333 0 00.336-.336.333.333 0 00-.336-.336h-2.823a.333.333 0 00-.336.336c0 .188.148.336.336.336zM336.04 21.658h1.048a.333.333 0 00.337-.336.333.333 0 00-.337-.336h-1.048a.333.333 0 00-.336.336c0 .188.148.336.336.336zM291.066 21.658h3.965a.333.333 0 00.336-.336.333.333 0 00-.336-.336h-3.965a.333.333 0 00-.336.336c0 .188.148.336.336.336zM57.37 17.555h-9.651a.333.333 0 01-.336-.336c0-.188.147-.336.336-.336h9.65c.189 0 .336.148.336.336a.333.333 0 01-.336.336zM44.267 17.555h-4.113a.333.333 0 01-.336-.336c0-.188.148-.336.336-.336h4.113c.188 0 .336.148.336.336a.333.333 0 01-.336.336z"
            stroke="#000"
            fill="#000"
          />
          <path
            d="M14.938 5.567c.135 0 .256 0 .39.013A12.393 12.393 0 0125.019.916c4.758 0 8.898 2.688 10.982 6.626a5.948 5.948 0 017.38 5.78H7.182c0-4.288 3.48-7.755 7.755-7.755z"
            fill="#FFF"
          />
          <path
            d="M43.404 13.658s0 0 0 0H7.194a.333.333 0 01-.337-.336c0-4.462 3.63-8.091 8.092-8.091h.228a12.683 12.683 0 019.84-4.65c4.65 0 8.897 2.513 11.155 6.572.417-.081.834-.121 1.25-.121 3.455 0 6.264 2.795 6.29 6.25v.04c.028.188-.134.336-.308.336zm-35.861-.672h35.511a5.622 5.622 0 00-6.949-5.121.319.319 0 01-.376-.175 12.045 12.045 0 00-10.686-6.438 12.012 12.012 0 00-9.422 4.53.326.326 0 01-.283.12c-.12 0-.255-.013-.376-.013-3.992.014-7.245 3.159-7.42 7.097z"
            stroke="#000"
            fill="#000"
          />
          <path
            d="M7.183 13.658H4.36a.333.333 0 01-.336-.336c0-.189.148-.336.336-.336h2.823c.188 0 .336.147.336.336a.333.333 0 01-.336.336zM2.37 13.658H1.323a.333.333 0 01-.336-.336c0-.189.148-.336.336-.336h1.049c.188 0 .336.147.336.336a.333.333 0 01-.336.336zM47.345 13.658H43.38a.333.333 0 01-.336-.336c0-.189.148-.336.336-.336h3.965c.188 0 .336.147.336.336a.333.333 0 01-.336.336z"
            stroke="#000"
            fill="#000"
          />
          <path
            d="M218.66 164.845h-11.5c-.703 0-1.24-.525-1.24-1.212V66.628c0-.687.537-1.212 1.24-1.212h11.5c.704 0 1.242.525 1.242 1.212v97.005c0 .687-.538 1.212-1.241 1.212zm-10.41-2.33h9.321V67.745h-9.321v94.768z"
            fill="#333"
          />
          <path fill="#FFF" d="M144.554 66.214h62.143v97.875h-62.143z" />
          <path
            d="M207.024 164.845h-62.798c-.695 0-1.226-.525-1.226-1.212V66.628c0-.687.531-1.212 1.226-1.212h62.798c.695 0 1.226.525 1.226 1.212v97.005c0 .687-.531 1.212-1.226 1.212zm-61.694-2.33h60.59V67.745h-60.59v94.768z"
            fill="#333"
          />
          <path fill="#B8B8B8" d="M181.063 104.277h19.42v2.33h-19.42z" />
          <rect
            stroke="#333"
            stroke-width="2.5"
            fill="#F6F6F5"
            x="183.393"
            y="82.527"
            width="15.536"
            height="17.866"
            rx="1"
          />
          <path
            d="M198.746 91.848h-15.081c-.538 0-.96-.512-.96-1.165 0-.652.422-1.165.96-1.165h15.081c.537 0 .96.513.96 1.165 0 .653-.461 1.165-.96 1.165z"
            fill="#333"
          />
          <path fill="#FFF" d="M181.063 100.393h20.196v3.884h-20.196z" />
          <path
            d="M201.02 105.032h-20.495c-.569 0-1.016-.481-1.016-1.094v-4.026c0-.613.447-1.094 1.016-1.094h20.494c.57 0 1.017.481 1.017 1.094v4.026c0 .613-.448 1.094-1.017 1.094zm-19.958-2.33h18.643v-1.554h-18.643v1.554z"
            fill="#333"
          />
          <path fill="#B8B8B8" d="M152.321 104.277h19.42v2.33h-19.42z" />
          <rect
            stroke="#333"
            stroke-width="2.5"
            fill="#F6F6F5"
            x="154.652"
            y="82.527"
            width="15.536"
            height="17.866"
            rx="1"
          />
          <path
            d="M170.005 91.848h-15.081c-.538 0-.96-.512-.96-1.165 0-.652.422-1.165.96-1.165h15.08c.538 0 .96.513.96 1.165 0 .653-.422 1.165-.96 1.165z"
            fill="#333"
          />
          <path fill="#FFF" d="M152.321 100.393h20.196v3.884h-20.196z" />
          <path
            d="M172.278 105.032h-20.494c-.569 0-1.016-.481-1.016-1.094v-4.026c0-.613.447-1.094 1.016-1.094h20.494c.57 0 1.017.481 1.017 1.094v4.026c0 .613-.448 1.094-1.017 1.094zm-19.18-2.33h18.643v-1.554h-18.643v1.554z"
            fill="#333"
          />
          <path fill="#D3D3D3" d="M181.063 140.009h19.42v3.107h-19.42z" />
          <path
            fill="#F6F6F5"
            d="M183.393 119.036h15.536v17.089h-15.536z"
          />
          <path
            d="M198.697 137.657h-15.85c-.564 0-1.008-.457-1.008-1.039V118.5c0-.582.444-1.04 1.009-1.04h15.85c.564 0 1.007.458 1.007 1.04v18.118c0 .582-.484 1.04-1.008 1.04zm-15.304-1.553h13.982V119.79h-13.982v16.313z"
            stroke="#333"
            fill="#333"
          />
          <path
            d="M198.697 127.58h-15.85c-.564 0-1.008-.341-1.008-.776s.444-.777 1.009-.777h15.85c.564 0 1.007.342 1.007.777s-.484.776-1.008.776z"
            stroke="#333"
            fill="#333"
          />
          <path fill="#FFF" d="M181.063 136.125h20.196v3.884h-20.196z" />
          <path
            d="M201.02 140.764h-20.495c-.569 0-1.016-.421-1.016-.957v-3.523c0-.536.447-.957 1.016-.957h20.494c.57 0 1.017.421 1.017.957v3.523c0 .536-.448.957-1.017.957zm-19.958-1.553h18.643v-1.554h-18.643v1.554z"
            fill="#333"
          />
          <path fill="#FFF" d="M152.321 140.009h19.42v3.107h-19.42z" />
          <path
            stroke="#333"
            fill="#F6F6F5"
            d="M154.652 119.036h15.536v17.089h-15.536z"
          />
          <path
            d="M169.956 137.657h-15.85c-.564 0-1.008-.457-1.008-1.039V118.5c0-.582.444-1.04 1.008-1.04h15.85c.565 0 1.008.458 1.008 1.04v18.118c0 .582-.443 1.04-1.008 1.04zm-15.304-1.553h13.982V119.79h-13.982v16.313z"
            stroke="#333"
            fill="#333"
          />
          <path
            d="M169.956 127.58h-15.85c-.564 0-1.008-.341-1.008-.776s.444-.777 1.008-.777h15.85c.565 0 1.008.342 1.008.777s-.443.776-1.008.776z"
            stroke="#333"
            fill="#333"
          />
          <path fill="#5CB6FF" d="M152.321 136.125h20.196v3.884h-20.196z" />
          <path
            d="M172.278 140.764h-20.494c-.569 0-1.016-.421-1.016-.957v-3.523c0-.536.447-.957 1.016-.957h20.494c.57 0 1.017.421 1.017.957v3.523c0 .536-.448.957-1.017.957zm-19.18-1.553h18.643v-1.554h-18.643v1.554z"
            fill="#333"
          />
          <path
            d="M190.384 137.027c-.435 0-.777-.417-.777-.948v-9.104c0-.531.342-.948.777-.948s.777.417.777.948v9.104c0 .53-.342.948-.777.948z"
            stroke="#333"
            fill="#333"
          />
          <path
            d="M162.808 101.17c-.652 0-1.165-.44-1.165-1V82.75c0-.56.513-.999 1.165-.999.653 0 1.165.44 1.165.999v17.422c0 .56-.512.999-1.165.999z"
            fill="#333"
          />
          <path fill="#B6B6B6" d="M144.554 157.098h62.143v6.991h-62.143z" />
          <path
            d="M207.064 165.621h-62.84c-.693 0-1.224-.513-1.224-1.185v-6.951c0-.672.53-1.185 1.225-1.185h62.798c.694 0 1.225.513 1.225 1.185v6.951c.04.672-.53 1.185-1.184 1.185zm-61.734-2.33h60.59v-4.66h-60.59v4.66z"
            fill="#333"
          />
          <path fill="#B6B6B6" d="M207.473 157.098h10.875v6.991h-10.875z" />
          <path
            d="M218.653 165.621h-11.485c-.707 0-1.248-.513-1.248-1.185v-6.951c0-.672.54-1.185 1.248-1.185h11.485c.708 0 1.249.513 1.249 1.185v6.951c0 .672-.541 1.185-1.249 1.185zm-10.403-2.33h9.321v-4.66h-9.321v4.66z"
            fill="#333"
          />
          <path fill="#FFF" d="M153.875 61.554h49.714v4.661h-49.714z" />
          <path
            d="M203.106 67.746h-48.788c-.691 0-1.22-.564-1.22-1.301V61.28c0-.737.529-1.301 1.22-1.301h48.828c.692 0 1.22.564 1.22 1.301v5.165c-.04.737-.57 1.301-1.26 1.301zm-47.677-2.33h46.607v-2.33h-46.607v2.33z"
            fill="#333"
          />
        </g>
        <g
          stroke="#000"
          stroke-linecap="round"
          stroke-linejoin="round"
          stroke-width="2.5">
          <path
            d="M87.631 135.017c0 7.458-6.055 13.467-13.5 13.467-7.478 0-13.502-6.04-13.502-13.467 0-4.16 1.885-7.89 4.85-10.355a10.797 10.797 0 01-2.255-6.626c0-6.01 4.882-10.91 10.937-10.91s10.937 4.87 10.937 10.91c0 2.496-.834 4.808-2.256 6.626.093.092.186.154.278.247a13.545 13.545 0 014.511 10.108z"
            fill="#2EEA2E"
            fill-rule="nonzero"
          />
          <path d="M68.476 121.149l5.5 4.776M74.315 141.304l4.79-5.455M73.976 119.762v43.762" />
          <path
            d="M361.631 135.017c0 7.458-6.055 13.467-13.5 13.467-7.478 0-13.502-6.04-13.502-13.467 0-4.16 1.885-7.89 4.85-10.355a10.797 10.797 0 01-2.255-6.626c0-6.01 4.882-10.91 10.937-10.91s10.937 4.87 10.937 10.91c0 2.496-.834 4.808-2.256 6.626.093.092.186.154.278.247a13.545 13.545 0 014.511 10.108z"
            fill="#2EEA2E"
            fill-rule="nonzero"
          />
          <path d="M342.476 121.149l5.5 4.776M348.315 141.304l4.79-5.455M293.428 125.709v14.386" />
          <path
            d="M42.406 153.9h0C36.121 153.9 31 148.782 31 142.5v-12.26c0-6.283 5.12-11.402 11.406-11.402h0c6.286 0 11.407 5.119 11.407 11.402v12.26c0 6.313-5.09 11.4-11.407 11.4z"
            fill="#2EEA2E"
            fill-rule="nonzero"
          />
          <path d="M36.98 133.611l5.426 4.781M42.744 147.556l4.783-5.425M347.976 119.762v43.762M42.406 131.558v31.966" />
        </g>
        <path
          stroke="#333"
          stroke-width="2.5"
          fill="#FFF"
          fill-rule="nonzero"
          stroke-linecap="round"
          stroke-linejoin="round"
          d="M245.237 49.429h68.357v114.188h-68.357zM250.674 43.991h55.152v5.438h-55.152zM313.594 49.429h12.429v114.188h-12.429z"
        />
        <path
          stroke="#333"
          stroke-width="2.5"
          stroke-linecap="round"
          stroke-linejoin="round"
          d="M309.71 37h5.438v12.429h-5.438z"
        />
        <path
          stroke="#333"
          stroke-width="2.5"
          fill="#FFF"
          fill-rule="nonzero"
          stroke-linecap="round"
          stroke-linejoin="round"
          d="M318.255 40.884h5.438v8.545h-5.438z"
        />
        <path
          fill="#979696"
          fill-rule="nonzero"
          d="M253.525 83.048h20.126v2.734h-20.126z"
        />
        <path
          stroke="#333"
          stroke-width="2.5"
          fill="#F6F6F5"
          fill-rule="nonzero"
          stroke-linecap="round"
          stroke-linejoin="round"
          d="M255.884 59.713h16.052v19.544h-16.052z"
        />
        <path
          stroke="#333"
          stroke-width="2.5"
          fill="#FFF"
          fill-rule="nonzero"
          stroke-linecap="round"
          stroke-linejoin="round"
          d="M255.884 74.13h16.052v5.127h-16.052z"
        />
        <path
          stroke="#333"
          stroke-width="2.5"
          stroke-linecap="round"
          stroke-linejoin="round"
          d="M253.189 79.257h21.413v3.791h-21.413z"
        />
        <path
          fill="#979696"
          fill-rule="nonzero"
          d="M283.043 83.048h20.126v2.734h-20.126z"
        />
        <path
          stroke="#000"
          stroke-width="2.5"
          fill="#F6F6F5"
          fill-rule="nonzero"
          stroke-linecap="round"
          stroke-linejoin="round"
          d="M285.402 59.713h16.052v19.544h-16.052z"
        />
        <path
          stroke="#333"
          stroke-width="2.5"
          fill="#FFF"
          fill-rule="nonzero"
          stroke-linecap="round"
          stroke-linejoin="round"
          d="M285.402 64.685h16.052v14.572h-16.052z"
        />
        <path
          stroke="#333"
          stroke-width="2.5"
          fill="#F6F6F5"
          fill-rule="nonzero"
          stroke-linecap="round"
          stroke-linejoin="round"
          d="M282.737 79.257h21.413v3.791h-21.413z"
        />
        <path
          fill="#979696"
          fill-rule="nonzero"
          d="M253.525 115.847h20.126v2.685h-20.126z"
        />
        <path
          stroke="#333"
          stroke-width="2.5"
          fill="#F6F6F5"
          fill-rule="nonzero"
          stroke-linecap="round"
          stroke-linejoin="round"
          d="M255.884 92.929h16.052v19.195h-16.052z"
        />
        <path
          stroke="#333"
          stroke-width="2.5"
          fill="#FFF"
          fill-rule="nonzero"
          stroke-linecap="round"
          stroke-linejoin="round"
          d="M255.884 97.811h16.052v14.312h-16.052z"
        />
        <path
          stroke="#333"
          stroke-width="2.5"
          fill="#F6F6F5"
          fill-rule="nonzero"
          stroke-linecap="round"
          stroke-linejoin="round"
          d="M253.189 112.124h21.413v3.723h-21.413z"
        />
        <path
          fill="#979696"
          fill-rule="nonzero"
          d="M283.043 115.847h20.126v2.685h-20.126z"
        />
        <path
          stroke="#000"
          stroke-width="2.5"
          fill="#F6F6F5"
          fill-rule="nonzero"
          stroke-linecap="round"
          stroke-linejoin="round"
          d="M285.402 92.929h16.052v19.195h-16.052z"
        />
        <path
          stroke="#333"
          stroke-width="2.5"
          fill="#FFF"
          fill-rule="nonzero"
          stroke-linecap="round"
          stroke-linejoin="round"
          d="M285.402 107.088h16.052v5.035h-16.052z"
        />
        <path
          stroke="#333"
          stroke-width="2.5"
          fill="#F6F6F5"
          fill-rule="nonzero"
          stroke-linecap="round"
          stroke-linejoin="round"
          d="M282.737 112.124h21.413v3.723h-21.413z"
        />
        <path
          fill="#979696"
          fill-rule="nonzero"
          d="M253.525 149.044h20.126v2.734h-20.126z"
        />
        <path
          stroke="#000"
          stroke-width="2.5"
          fill="#F6F6F5"
          fill-rule="nonzero"
          stroke-linecap="round"
          stroke-linejoin="round"
          d="M255.884 125.709h16.052v19.544h-16.052z"
        />
        <path
          stroke="#333"
          stroke-width="2.5"
          fill="#FFF"
          fill-rule="nonzero"
          stroke-linecap="round"
          stroke-linejoin="round"
          d="M255.884 140.095h16.052v5.127h-16.052z"
        />
        <path
          stroke="#333"
          stroke-width="2.5"
          fill="#F6F6F5"
          fill-rule="nonzero"
          stroke-linecap="round"
          stroke-linejoin="round"
          d="M253.189 145.222h21.413v3.791h-21.413z"
        />
        <path
          fill="#979696"
          fill-rule="nonzero"
          d="M283.043 149.044h20.126v2.734h-20.126z"
        />
        <path
          stroke="#333"
          stroke-width="2.5"
          fill="#F6F6F5"
          fill-rule="nonzero"
          stroke-linecap="round"
          stroke-linejoin="round"
          d="M285.402 125.709h16.052v19.544h-16.052z"
        />
        <path
          stroke="#333"
          stroke-width="2.5"
          fill="#FFF"
          fill-rule="nonzero"
          stroke-linecap="round"
          stroke-linejoin="round"
          d="M285.402 140.095h16.052v5.127h-16.052z"
        />
        <path
          stroke="#333"
          stroke-width="2.5"
          fill="#F6F6F5"
          fill-rule="nonzero"
          stroke-linecap="round"
          stroke-linejoin="round"
          d="M282.737 145.222h21.413v3.791h-21.413z"
        />
        <path
          fill="#8E8E93"
          fill-rule="nonzero"
          d="M246.79 50.982h65.25v2.33h-65.25zM315.148 50.982h9.321v2.33h-9.321z"
        />
        <path
          d="M255.884 67.108h16.022M263.88 59.713V74.13M285.402 69.283h16.052M255.884 102.358h16.022M285.402 100.222h16.052M293.428 92.929v14.16M255.884 133.104h16.022M263.88 125.709v14.386M285.402 133.104h16.052"
          stroke="#333"
          stroke-width="2.5"
          stroke-linecap="round"
          stroke-linejoin="round"
        />
      </g>
      <path
        fill="#FFF"
        fill-rule="nonzero"
        d="M20 96h5v5h-5zM33 96h5v5h-5zM68 50h5v4h-5zM68 60h5v4h-5zM81 50h5v4h-5zM93 50h5v4h-5zM6 119h4v4H6zM6 129h4v4H6zM16 129h4v4h-4zM149 88h5v5h-5zM138 88h4v5h-4z"
      />
    </g>
  </g>
</svg>